<?xml version="1.0" encoding="utf-8"?>
<!-- Generator: Adobe Illustrator 21.0.0, SVG Export Plug-In . SVG Version: 6.00 Build 0)  -->
<svg version="1.1" id="Capa_1" xmlns="http://www.w3.org/2000/svg" xmlns:xlink="http://www.w3.org/1999/xlink" x="0px" y="0px"
	 viewBox="0 0 100 100" style="enable-background:new 0 0 100 100;" xml:space="preserve">
<style type="text/css">
	.st0{fill:#98B84B;}
</style>
<g>
	<path class="st0" d="M20.1,40.2c8-16.2,18.5-22.8,33.6-21.5c12.5,1.1,24.7,11.9,26.9,23.9c0.2,1.4,1.4,3.7-1.1,4.1
		c-2.1,0.3-1.7-2-2.1-3.3C73.6,31.1,64.2,22.8,52.7,22C40.8,21.1,29.9,27.3,25,37.8c-0.3,0.7-0.6,1.6-0.9,2.4
		c1.8,1.2,4.3-2.3,5.2,0.2c0.9,2.7-2.4,3.1-4,4.2c-1.5,1.1-3.5,3.5-5.2,1.8c-2.2-2.1-3.5-5.2-5-7.9c-0.2-0.3,0.3-1.3,0.8-1.5
		c0.5-0.2,1.4-0.1,1.8,0.2C18.6,38.1,19.2,39.1,20.1,40.2z"/>
	<path class="st0" d="M75.6,58.8c-1.6-0.2-3.5,2.9-4.7,0.2c-1-2.4,1.8-2.7,3.3-3.6c5.6-3.4,9.7-1.3,10.7,5.4c0.1,0.6,0,1.4-0.4,1.8
		c-0.6,0.7-1.5,0.6-2.2-0.2c-0.7-0.8-1.4-1.7-2.3-2.8c-4.3,10.8-11.6,18-22.8,20.8c-16.3,4-33.4-6.4-37.3-22.6
		c-0.2-0.6-0.3-1.3-0.3-2c0-1-0.7-2.5,1.1-2.8c1.6-0.3,1.8,0.9,2.1,2.1c0.5,2.1,1.2,4.1,2,6.1C29.6,72,39.8,78.3,51.9,77.8
		c10.8-0.4,20.3-7.6,24.3-18.4c0.3-0.4,0.5-0.8,0-1.2C76.1,58.1,75.8,58.6,75.6,58.8z"/>
	<path class="st0" d="M50.2,66.1c-9.5,0.1-15.5-9.2-11.4-17.8c2.1-4.5,5.3-8.4,8.6-12.2c1.8-2.1,3.4-2.3,5.3-0.1
		c3.5,3.9,6.7,7.9,8.9,12.6C65.4,57,59.5,66,50.2,66.1z M59.6,53.6c-0.2-0.7-0.4-1.7-0.8-2.6c-2.1-4.7-4.6-11.2-9-11.5
		c-3.5-0.2-6.2,6.5-8.4,10.9c-1.8,3.7-0.8,6.8,1.8,9.6c2.8,2.9,6.2,3.7,10,2.3C57.3,60.8,59.1,57.8,59.6,53.6z"/>
	<path class="st0" d="M52.6,57.5c-0.2,1.2-0.9,1.5-1.8,1.5c-2.7,0-4.3-1.5-5.4-3.7c-0.6-1.2-1.1-2.7,0.2-3.6
		c1.8-1.1,2.4,0.5,2.6,1.7C48.7,55.9,52.3,55.1,52.6,57.5z"/>
</g>
</svg>
