<?xml version="1.0" encoding="utf-8"?>
<!-- Generator: Adobe Illustrator 21.0.0, SVG Export Plug-In . SVG Version: 6.00 Build 0)  -->
<svg version="1.1" id="Capa_1" xmlns="http://www.w3.org/2000/svg" xmlns:xlink="http://www.w3.org/1999/xlink" x="0px" y="0px"
	 viewBox="0 0 100 100" style="enable-background:new 0 0 100 100;" xml:space="preserve">
<style type="text/css">
	.st0{fill:#141414;}
</style>
<path class="st0" d="M49.1,18.2c3.7,5.8,7.4,10.2,9.6,15.2c2.5,5.9,0.2,10.2-5.5,13.5C50,48,52,53,54.4,52.7c2.6-0.3,5.3,0,8,0.1
	c4.2,0.1,6.7,3.9,4.1,7c-4.6,5.4-3.2,11.9-4.4,17.8c-0.8,4.2-1.8,6.4-6.4,6.1c-5-0.3-10-0.1-15,0c-3.1,0-4.8-0.8-5-4.5
	c-0.2-4-0.8-7.9-1.4-11.8c-0.3-1.8-0.5-3.6-1.2-5.3c-0.5-1.3-1-2.6-1.5-4c-0.3-0.9-1-2.7-0.3-3.6c0.1-0.2,0.3-0.3,0.5-0.3
	c3.5-1.6,7.4-1.3,11.1-1.4c0.9,0,1.8-0.1,2.7-0.4c0.5-0.2,1-0.5,1.4-0.9c2.1-2.1-2.8-4.8-4-5.6c-1.4-1-2.8-2.2-3.7-3.7
	c-1.8-2.7-1.8-5.8-0.7-8.7c0.6-1.5,1.4-3,2.2-4.3C42.9,25.8,45.6,22.8,49.1,18.2z M35.5,61.6c0.9,6.5,1.7,12.5,2.6,18.5
	c0.1,0.7,1.3,1.7,2,1.8c5.6,0.2,11.3,0.2,16.9,0.1c0.8,0,2.1-0.9,2.2-1.6c1-6.1,1.7-12.2,2.6-18.7C52.9,61.6,44.8,61.6,35.5,61.6z
	 M49.1,22.8c-7.5,5.8-10.5,13.5-8.9,17c1.3,2.9,3,5.5,8.3,4.9C46,41,45,40,44.1,36.1C45.2,36,47,36,48,37c0.3-2.2-1-7,1-9
	c2,3,5,10,0.8,17c5-0.2,7.3-2.9,7.7-6.3C58.2,31.7,53.4,27.3,49.1,22.8z M48.7,59.2c4.2,0,8.3,0.2,12.5-0.1c1.2-0.1,2.9-1.1,3.5-2.4
	c-0.6-1.7-2.2-2.1-3.3-2.1c-8.5-0.2-17-0.2-25.5,0c-1.1,0-2.8,0.4-3.2,2.2c0.4,2.2,2.3,2.2,3.6,2.3C40.3,59.4,44.5,59.2,48.7,59.2z"
	/>
</svg>
