<?xml version="1.0" encoding="utf-8"?>
<!-- Generator: Adobe Illustrator 21.0.0, SVG Export Plug-In . SVG Version: 6.00 Build 0)  -->
<svg version="1.1" id="Capa_1" xmlns="http://www.w3.org/2000/svg" xmlns:xlink="http://www.w3.org/1999/xlink" x="0px" y="0px"
	 viewBox="0 0 100 100" style="enable-background:new 0 0 100 100;" xml:space="preserve">
<style type="text/css">
	.st0{fill:#141414;}
</style>
<g>
	<path class="st0" d="M38.8,76.4c1.7,0.9,3.5,1.5,5.5,1.8c1.3,0.2,2.7,0.1,4-0.1c1.4-0.2,1.2-0.6,1.2-1.9c0-1.9,0-3.7,0-5.6
		c0.1-8.4,0.2-16.7,0.1-25.1c0-0.5,0.1-7.6-0.6-7.6c-1,0-0.9,12.3-1.2,17.4c-2.8-4.4-7.9-4.8-8.4-4.5c9.8,6.2,8.6,15.1,8.2,25
		c-3.6-0.4-7-1.1-9.9-3.1c-3.2-2.3-5.7-6-6.7-8c-1.2-2.5-6-10.8,17.8-38.8C54.7,34.6,67,47.6,67,57c0,8.5-10,17-16,19
		c-1,1-0.5,1.6,0,1.6C58,78,73,66,69,53c-3.1-10.1-12.6-19.2-18.8-27.8c-0.5-0.7-1.2-2.2-3-0.2C39.3,33.4,32,44,28.2,55.2
		c-1.8,5.4-0.1,10,3.1,14.6C33.2,72.5,35.8,74.8,38.8,76.4z"/>
</g>
</svg>
