<?xml version="1.0" encoding="utf-8"?>
<!-- Generator: Adobe Illustrator 21.0.0, SVG Export Plug-In . SVG Version: 6.00 Build 0)  -->
<svg version="1.1" id="Capa_1" xmlns="http://www.w3.org/2000/svg" xmlns:xlink="http://www.w3.org/1999/xlink" x="0px" y="0px"
	 viewBox="0 0 100 100" style="enable-background:new 0 0 100 100;" xml:space="preserve">
<style type="text/css">
	.st0{fill:#98B84B;}
</style>
<g>
	<path class="st0" d="M63.4,68.7c-5.3,0.1-10.7,0.2-16,0.2c-1.1,0-2.5,0.3-2.7-1.4c-0.2-2.2,1.6-1.7,2.8-1.7c4-0.1,8,0,12,0
		c1.2,0,2.5-0.1,2.5-1.7c-0.1-1.2-1.3-1.3-2.3-1.3c-1.5,0-3-0.1-4.5,0c-2.8,0.3-4.9-0.4-6.8-2.9c-2.9-3.8-7.3-4.3-11.8-3
		c-4.1,1.2-6.5,4.1-6.8,8.3c-0.3,3.7-1.4,4.3-4.6,2.3c-1.5-0.9-3.6-0.7-5.3-1.1c-1-0.3-1.8-1.1-1.4-2.2c0.4-1.1,1.3-1.4,2.4-0.9
		c4,1.8,5.2-0.6,7.4-3.6c3.8-5.3,9-9.4,15.8-10.7c1.7-0.3,3.2-1,4.5-1.9c1.9-1.3,2-2.8,0-4.3c-7.7-5.8-8.2-9.4-2.5-17.3
		c5.2-7.3,6-7.3,11.1-0.2c5.8,8,5.4,11.3-2.7,17.5c-1.2,1-1.3,2.1-0.8,3c1.1,1.9,1.8-0.1,2.6-0.6c5.5-3.5,10.4-1.9,12.7,4.2
		c1.7,4.5,2.5,4.7,5.4,0.9c1.7-2.1,3.5-3.1,6-1.7c2.7,1.5,2.9,3.9,1.7,6.4c-3.1,6.5-6.7,12.7-12.1,17.6c-3.8,3.5-8.3,5.5-13.5,5.5
		c-4.7,0-9.3,0.1-14,0c-4.4-0.1-8.6,0.4-12.2,3.4c-0.9,0.8-1.9,1.7-3,0.5c-1.3-1.4,0-2.5,1-3.3c3.2-2.5,6.9-3.9,11.1-3.9
		c5.3,0,10.7-0.1,16,0c4.7,0.1,8.8-1.3,12.1-4.8c5.5-4,8.3-10.1,11.4-15.9c0.4-0.8,1.3-1.8-0.2-2.4c-1-0.4-1.5,0.4-1.9,1.1
		C73.3,59,67.9,63.5,63.4,68.7z M44.2,53.4c2.1,0.8,4.4,1.4,5.6,3.2c4.1,5.8,11.3,0.7,15.9,4.7c0.1,0.1,0.9-0.8,1.5-1.2
		c6.2-4.7-3.2-6.6-1.9-10.8c0.4-1.4-2.2-2.6-4.2-2.5c-1.4,0.1-2.5,0.9-3.3,2c-0.6,0.8-1.2,2.2-2.2,1.7
		C50.9,48.3,47.9,52.2,44.2,53.4z M54.1,39.5c2.8-1.6,4.3-3.7,3.4-6.7c-0.9-3.2-3-5.8-5.4-8.2c-0.1-0.1-0.7-0.1-0.9,0
		c-2.4,2.5-4.8,5.1-5.5,8.7c-0.5,2.7,0.6,4.9,3.4,5.8c1.5-1.1,0-4.3,2.8-4C54.1,35.3,52.8,37.9,54.1,39.5z"/>
</g>
</svg>
