<?xml version="1.0" encoding="utf-8"?>
<!-- Generator: Adobe Illustrator 21.0.0, SVG Export Plug-In . SVG Version: 6.00 Build 0)  -->
<svg version="1.1" id="Capa_1" xmlns="http://www.w3.org/2000/svg" xmlns:xlink="http://www.w3.org/1999/xlink" x="0px" y="0px"
	 viewBox="0 0 100 100" style="enable-background:new 0 0 100 100;" xml:space="preserve">
<style type="text/css">
	.st0{fill:#98B84B;}
</style>
<g>
	<path class="st0" d="M87.9,28c-0.6,5.8-1.4,12.9-3.5,19.8c-4,12.7-16.6,18.1-28.3,11.8c-3.9-2.1-4.8-1.1-5.8,2.4
		c-1.4,5.1-2.5,10.2-1.3,15.5c0.4,1.7,1,3.9-1.2,4.5c-2.5,0.6-2.9-1.9-2.7-3.4c0.7-6-2.5-7.9-7.6-9.8c-5.1-1.9-9.3-5.1-15.3-5.4
		c-6.1-0.3-9.7-6.6-9.2-12.8c0.4-5.7,3.1-10.7,5.4-15.8c1.3-2.7,3.2-3.3,5.6-1.4c3.4,2.6,7,5,10,7.9c6,5.9,6.7,11.4,1.6,18.1
		c-2.9,3.8,0.2,4.5,2.1,5.4c2.4,1.1,5.9,4.5,7.6-0.1c1.8-5.1,4.5-9.7,1.5-16.3c-4.7-10,1.4-20.8,12-24.6c7-2.5,14.3-3.3,21.7-4
		C87.8,19,88.3,19.5,87.9,28z M65,58.1c7.8,0.1,12.8-3.5,15.4-10.6c2.4-6.6,2.8-13.6,3.8-20.5c0.3-2.1-0.2-3.5-2.6-3.3
		c-8.1,0.5-16.3,1.2-23.8,4.7c-6.5,3-9.7,10.6-7.7,17.6c0.8,3,1.6,5.4,4.8,1.5c2.7-3.3,6.3-5.8,10.1-7.7c1.2-0.6,2.7-1.3,3.4,0.5
		c0.6,1.3-0.5,2.1-1.5,2.8c-2.5,1.8-5.2,3.4-7.5,5.5c-1.7,1.6-4.9,3-3.8,5.8c0.9,2.4,4,2.9,6.4,3.5C63.1,58.1,64.3,58,65,58.1z
		 M26.8,59.9c-0.7-2.1-1.4-3.7-1.8-5.4c-0.4-2.1-2.8-5.1,0.5-6c2.8-0.8,2.2,2.9,3,4.6c0.8,1.7,0.9,4.6,3,4.3c2-0.3,2.7-2.9,3.1-5.1
		c0.5-3.2-0.6-5.7-2.8-7.8c-3-2.9-6.2-7.9-9.9-6.9c-3.2,0.9-3.8,6.8-4.8,10.7C15.4,54.9,18.9,59.1,26.8,59.9z"/>
</g>
</svg>
